<svg width="72" height="72" fill="none" xmlns="http://www.w3.org/2000/svg"><path d="m20 32 2.142-11.16.7 4.176 2.33 13.905c.26 1.56 1.643 2.816 3.52 3.198L40 44.419l-11.316 2.303c-1.873.381-3.251 1.636-3.513 3.197L22.142 68l-3.029-18.08c-.261-1.561-1.64-2.816-3.513-3.197L4.284 44.42 15.6 42.117C17.473 41.737 18.739 39.56 19 38l1-6ZM42.556 13.45l1.547-8.06.505 3.016 1.682 10.043c.19 1.127 1.187 2.033 2.543 2.309L57 22.42l-8.173 1.663c-1.352.275-2.348 1.181-2.537 2.308L44.103 39.45l-2.188-13.058c-.189-1.127-1.185-2.034-2.537-2.309l-8.173-1.663 8.173-1.663c1.352-.275 2.267-1.847 2.455-2.974l.723-4.333ZM53.272 47.723l1.81-9.883.403 2.405 1.341 8.008c.151.899.947 1.622 2.028 1.841l6.513 1.326-6.518 1.326c-1.078.22-1.872.942-2.023 1.84L55.082 65l-1.745-10.413c-.15-.899-.944-1.621-2.023-1.84l-6.517-1.327 6.518-1.326c1.078-.22 1.807-1.473 1.957-2.371Z" fill="#FCEA2B"/><path d="m20 32 2.142-11.16.7 4.176 2.33 13.905c.26 1.56 1.643 2.816 3.52 3.198L40 44.419l-11.316 2.303c-1.873.381-3.251 1.636-3.513 3.197L22.142 68l-3.029-18.08c-.261-1.561-1.64-2.816-3.513-3.197L4.284 44.42 15.6 42.117C17.473 41.737 18.739 39.56 19 38l1-6ZM42.556 13.45l1.547-8.06.505 3.016 1.682 10.043c.19 1.127 1.187 2.033 2.543 2.309L57 22.42l-8.173 1.663c-1.352.275-2.348 1.181-2.537 2.308L44.103 39.45l-2.188-13.058c-.189-1.127-1.185-2.034-2.537-2.309l-8.173-1.663 8.173-1.663c1.352-.275 2.267-1.847 2.455-2.974l.723-4.333ZM53.272 47.723l1.81-9.883.403 2.405 1.341 8.008c.151.899.947 1.622 2.028 1.841l6.513 1.326-6.518 1.326c-1.078.22-1.872.942-2.023 1.84L55.082 65l-1.745-10.413c-.15-.899-.944-1.621-2.023-1.84l-6.517-1.327 6.518-1.326c1.078-.22 1.807-1.473 1.957-2.371Z" stroke="#000" stroke-miterlimit="10" stroke-linecap="round" stroke-linejoin="round"/></svg>